<svg xmlns="http://www.w3.org/2000/svg" width="17" height="21" viewBox="0 0 17 21" fill="none">
    <path d="M4.33331 8.23336C4.33331 7.54611 4.56747 6.88701 4.98427 6.40105C5.40107 5.9151 5.96637 5.64209 6.55581 5.64209H13.7775C14.0693 5.64209 14.3583 5.70912 14.628 5.83934C14.8976 5.96956 15.1426 6.16043 15.349 6.40105C15.5554 6.64168 15.7191 6.92733 15.8308 7.24172C15.9425 7.55611 16 7.89307 16 8.23336V16.6533C16 16.9936 15.9425 17.3305 15.8308 17.6449C15.7191 17.9593 15.5554 18.245 15.349 18.4856C15.1426 18.7262 14.8976 18.9171 14.628 19.0473C14.3583 19.1775 14.0693 19.2445 13.7775 19.2445H6.55581C6.26395 19.2445 5.97495 19.1775 5.7053 19.0473C5.43565 18.9171 5.19065 18.7262 4.98427 18.4856C4.77789 18.245 4.61418 17.9593 4.50249 17.6449C4.3908 17.3305 4.33331 16.9936 4.33331 16.6533V8.23336Z" stroke="#4C4C4C" stroke-width="2" stroke-linecap="round" stroke-linejoin="round"/>
    <path d="M1.84333 15.1025C1.5875 14.9331 1.37471 14.6876 1.22658 14.3912C1.07846 14.0948 1.00028 13.7579 1 13.4149V3.69882C1 2.63006 1.75 1.75562 2.66667 1.75562H11C11.625 1.75562 11.965 2.12968 12.25 2.72722" stroke="#4C4C4C" stroke-width="2" stroke-linecap="round" stroke-linejoin="round"/>
</svg>