<svg xmlns="http://www.w3.org/2000/svg" width="18" height="17" viewBox="0 0 18 17" fill="none">
    <path d="M8.98783 11.1509L11.5814 14.0177C12.5414 15.0794 13.0222 15.6106 13.5254 15.4807C14.0279 15.3516 14.2007 14.6532 14.5455 13.2555L16.4575 5.50265C16.9895 3.34977 17.2551 2.27411 16.6647 1.74289C16.0743 1.21167 15.0511 1.60678 13.0046 2.39622L3.5118 6.06187C1.875 6.6942 1.05659 7.00998 1.00459 7.55287C0.998469 7.60819 0.998469 7.66399 1.00459 7.71931C1.05499 8.26298 1.8718 8.58109 3.507 9.21809C4.24701 9.50664 4.61741 9.65131 4.88301 9.92742C4.91288 9.95853 4.94168 9.99068 4.96941 10.0239C5.21421 10.3194 5.31821 10.7083 5.52701 11.483L5.91822 12.9351C6.12062 13.6895 6.22222 14.0675 6.48862 14.1189C6.75502 14.1702 6.98622 13.8575 7.44942 13.2314L8.98783 11.1509ZM8.98783 11.1509L8.73423 10.8942C8.44463 10.6002 8.29983 10.454 8.29983 10.272C8.29983 10.09 8.44383 9.94297 8.73423 9.64975L11.5926 6.75332" stroke="white" stroke-width="1.5" stroke-linecap="round" stroke-linejoin="round"/>
</svg>